<svg width="14" height="21" viewBox="0 0 14 21" fill="none" xmlns="http://www.w3.org/2000/svg">
<path fill-rule="evenodd" clip-rule="evenodd" d="M1.5 0.667969H12.5C13.3284 0.667969 14 1.34513 14 2.18046V20.3893C14 20.564 13.7946 20.6561 13.666 20.539L12.0017 19.0242C11.8114 18.851 11.522 18.851 11.3316 19.0242L9.66836 20.5381C9.47804 20.7113 9.18863 20.7113 8.99831 20.5381L7.33502 19.0242C7.14471 18.851 6.85529 18.851 6.66498 19.0242L5.00169 20.5381C4.81137 20.7113 4.52196 20.7113 4.33164 20.5381L2.66836 19.0242C2.47804 18.851 2.18863 18.851 1.99831 19.0242L0.334009 20.539C0.205371 20.6561 0 20.564 0 20.3893V2.18046C0 1.34513 0.671573 0.667969 1.5 0.667969ZM7.00079 8.264H5.41379L6.70679 6.971C6.88894 6.7824 6.98974 6.5298 6.98746 6.2676C6.98518 6.0054 6.88001 5.75459 6.6946 5.56918C6.5092 5.38378 6.25838 5.27861 5.99619 5.27633C5.73399 5.27405 5.48139 5.37485 5.29279 5.557L2.29279 8.557C2.10532 8.74453 2 8.99884 2 9.264C2 9.52917 2.10532 9.78347 2.29279 9.971L5.29279 12.971C5.38503 13.0665 5.49538 13.1427 5.61738 13.1951C5.73939 13.2475 5.87061 13.2751 6.00339 13.2763C6.13616 13.2774 6.26784 13.2521 6.39074 13.2018C6.51364 13.1515 6.62529 13.0773 6.71918 12.9834C6.81307 12.8895 6.88733 12.7779 6.93761 12.655C6.98789 12.5321 7.01319 12.4004 7.01204 12.2676C7.01088 12.1348 6.9833 12.0036 6.93089 11.8816C6.87848 11.7596 6.8023 11.6493 6.70679 11.557L5.41379 10.264H7.00079C9.06979 10.264 9.99979 11.38 9.99979 13.264C9.99979 13.5292 10.1051 13.7836 10.2927 13.9711C10.4802 14.1586 10.7346 14.264 10.9998 14.264C11.265 14.264 11.5194 14.1586 11.7069 13.9711C11.8944 13.7836 11.9998 13.5292 11.9998 13.264C11.9998 10.348 10.2638 8.264 7.00079 8.264Z" fill="#003848"/>
</svg>
