<svg width="16" height="16" viewBox="0 0 16 16" fill="none" xmlns="http://www.w3.org/2000/svg">
<path fill-rule="evenodd" clip-rule="evenodd" d="M8.00078 0.799805C4.03088 0.799805 0.800781 4.02991 0.800781 7.9998C0.800781 11.9697 4.03088 15.1998 8.00078 15.1998C11.9707 15.1998 15.2008 11.9697 15.2008 7.9998C15.2008 4.02991 11.9707 0.799805 8.00078 0.799805ZM8.00078 13.3998C5.02268 13.3998 2.60078 10.9779 2.60078 7.9998C2.60078 5.0217 5.02268 2.5998 8.00078 2.5998C10.9789 2.5998 13.4008 5.0217 13.4008 7.9998C13.4008 10.9779 10.9789 13.3998 8.00078 13.3998ZM10.7008 7.0998H8.90078V5.2998C8.90078 4.803 8.49848 4.3998 8.00078 4.3998C7.50308 4.3998 7.10078 4.803 7.10078 5.2998V7.0998H5.30078C4.80308 7.0998 4.40078 7.50301 4.40078 7.9998C4.40078 8.4966 4.80308 8.89981 5.30078 8.89981H7.10078V10.6998C7.10078 11.1966 7.50308 11.5998 8.00078 11.5998C8.49848 11.5998 8.90078 11.1966 8.90078 10.6998V8.89981H10.7008C11.1985 8.89981 11.6008 8.4966 11.6008 7.9998C11.6008 7.50301 11.1985 7.0998 10.7008 7.0998Z" fill="white"/>
</svg>
