<svg width="16" height="16" viewBox="0 0 16 16" fill="none" xmlns="http://www.w3.org/2000/svg">
<path fill-rule="evenodd" clip-rule="evenodd" d="M7.9998 0.799805C4.02991 0.799805 0.799805 4.02991 0.799805 7.9998C0.799805 11.9697 4.02991 15.1998 7.9998 15.1998C11.9697 15.1998 15.1998 11.9697 15.1998 7.9998C15.1998 4.02991 11.9697 0.799805 7.9998 0.799805ZM7.9998 13.3998C5.0217 13.3998 2.5998 10.9779 2.5998 7.9998C2.5998 5.0217 5.0217 2.5998 7.9998 2.5998C10.9779 2.5998 13.3998 5.0217 13.3998 7.9998C13.3998 10.9779 10.9779 13.3998 7.9998 13.3998ZM10.6998 7.0998H8.89981V5.2998C8.89981 4.803 8.4975 4.3998 7.9998 4.3998C7.5021 4.3998 7.0998 4.803 7.0998 5.2998V7.0998H5.2998C4.8021 7.0998 4.3998 7.50301 4.3998 7.9998C4.3998 8.4966 4.8021 8.89981 5.2998 8.89981H7.0998V10.6998C7.0998 11.1966 7.5021 11.5998 7.9998 11.5998C8.4975 11.5998 8.89981 11.1966 8.89981 10.6998V8.89981H10.6998C11.1975 8.89981 11.5998 8.4966 11.5998 7.9998C11.5998 7.50301 11.1975 7.0998 10.6998 7.0998Z" fill="#219FFF"/>
</svg>
