<svg width="14" height="20" viewBox="0 0 14 20" fill="none" xmlns="http://www.w3.org/2000/svg">
<path fill-rule="evenodd" clip-rule="evenodd" d="M1.5 0H12.5C13.3284 0 14 0.677165 14 1.51249V19.7213C14 19.896 13.7946 19.9881 13.666 19.871L12.0017 18.3562C11.8114 18.183 11.522 18.183 11.3316 18.3562L9.66836 19.8701C9.47804 20.0433 9.18863 20.0433 8.99831 19.8701L7.33502 18.3562C7.14471 18.183 6.85529 18.183 6.66498 18.3562L5.00169 19.8701C4.81137 20.0433 4.52196 20.0433 4.33164 19.8701L2.66836 18.3562C2.47804 18.183 2.18863 18.183 1.99831 18.3562L0.334009 19.871C0.205371 19.9881 0 19.896 0 19.7213V1.51249C0 0.677165 0.671573 0 1.5 0ZM7.00079 7.59603H5.41379L6.70679 6.30303C6.88894 6.11443 6.98974 5.86183 6.98746 5.59963C6.98518 5.33744 6.88001 5.08662 6.6946 4.90122C6.5092 4.71581 6.25838 4.61064 5.99619 4.60836C5.73399 4.60608 5.48139 4.70688 5.29279 4.88903L2.29279 7.88903C2.10532 8.07656 2 8.33087 2 8.59603C2 8.8612 2.10532 9.11551 2.29279 9.30303L5.29279 12.303C5.38503 12.3985 5.49538 12.4747 5.61738 12.5271C5.73939 12.5795 5.87061 12.6071 6.00339 12.6083C6.13616 12.6094 6.26784 12.5841 6.39074 12.5339C6.51364 12.4836 6.62529 12.4093 6.71918 12.3154C6.81307 12.2215 6.88733 12.1099 6.93761 11.987C6.98789 11.8641 7.01319 11.7324 7.01204 11.5996C7.01088 11.4669 6.9833 11.3356 6.93089 11.2136C6.87848 11.0916 6.8023 10.9813 6.70679 10.889L5.41379 9.59603H7.00079C9.06979 9.59603 9.99979 10.712 9.99979 12.596C9.99979 12.8613 10.1051 13.1156 10.2927 13.3031C10.4802 13.4907 10.7346 13.596 10.9998 13.596C11.265 13.596 11.5194 13.4907 11.7069 13.3031C11.8944 13.1156 11.9998 12.8613 11.9998 12.596C11.9998 9.68003 10.2638 7.59603 7.00079 7.59603Z" fill="white"/>
</svg>
