<svg width="20" height="20" viewBox="0 0 20 20" fill="none" xmlns="http://www.w3.org/2000/svg">
<path fill-rule="evenodd" clip-rule="evenodd" d="M3.5 4C2.67157 4 2 4.67157 2 5.5V14.5C2 15.3284 2.67157 16 3.5 16H16.5C17.3284 16 18 15.3284 18 14.5V5.5C18 4.67157 17.3284 4 16.5 4H3.5ZM5.51452 6.14251C5.04094 5.85836 4.42668 6.01192 4.14254 6.4855C3.85839 6.95908 4.01195 7.57334 4.48553 7.85749L9.48553 10.8575C9.80222 11.0475 10.1978 11.0475 10.5145 10.8575L15.5145 7.85749C15.9881 7.57334 16.1417 6.95908 15.8575 6.4855C15.5734 6.01192 14.9591 5.85836 14.4855 6.14251L10 8.83381L5.51452 6.14251Z" fill="#AFB3B6"/>
</svg>
