<svg width="16" height="16" viewBox="0 0 16 16" fill="none" xmlns="http://www.w3.org/2000/svg">
<path d="M5.03273 11.3355C5.20831 11.16 5.29655 10.9296 5.29655 10.6992C5.29655 10.4688 5.20831 10.2384 5.03273 10.0629L3.86854 8.89921L9.79847 8.89921C10.2964 8.89921 10.6989 8.49601 10.6989 7.99921C10.6989 7.50241 10.2964 7.09921 9.79847 7.09921L3.86854 7.09921L5.03273 5.93551C5.38478 5.58361 5.38478 5.01481 5.03273 4.66291C4.68068 4.31101 4.11164 4.31101 3.75959 4.66291L1.05843 7.36291C0.9801 7.44121 0.924276 7.53391 0.880157 7.63111C0.869081 7.65563 0.86148 7.68014 0.853691 7.70527C0.852615 7.70874 0.851536 7.71222 0.850444 7.71571C0.824333 7.79131 0.809927 7.86781 0.805425 7.94701C0.804899 7.95517 0.804219 7.96317 0.803542 7.97113C0.801904 7.9904 0.800286 8.00943 0.800923 8.02981C0.803624 8.12701 0.819831 8.22421 0.856747 8.31781C0.858098 8.32141 0.858773 8.32524 0.859448 8.32906C0.860123 8.33289 0.860799 8.33671 0.862149 8.34031L0.86305 8.34391C0.905368 8.44471 0.967494 8.53111 1.03953 8.60851C1.04358 8.61256 1.04628 8.61729 1.04898 8.62201C1.05168 8.62674 1.05438 8.63146 1.05843 8.63551L3.75959 11.3355C4.11164 11.6874 4.68068 11.6874 5.03273 11.3355Z" fill="#02005F"/>
<path d="M7.10038 13.8492C7.10038 14.5948 7.7048 15.1992 8.45038 15.1992L13.8504 15.1992C14.596 15.1992 15.2004 14.5948 15.2004 13.8492L15.2004 2.14922C15.2004 1.40363 14.596 0.799218 13.8504 0.799218L8.45038 0.799218C7.7048 0.799218 7.10038 1.40363 7.10038 2.14922L7.10038 5.29922L8.90038 5.29922L8.90038 2.59922L13.4004 2.59922L13.4004 13.3992L8.90038 13.3992L8.90038 10.6992L7.10038 10.6992L7.10038 13.8492Z" fill="#02005F"/>
</svg>
