<svg width="21" height="20" viewBox="0 0 21 20" fill="none" xmlns="http://www.w3.org/2000/svg">
<path fill-rule="evenodd" clip-rule="evenodd" d="M10.5284 0.300781C5.15516 0.300781 0.783203 4.67274 0.783203 10.046C0.783203 15.4193 5.15516 19.7912 10.5284 19.7912C15.9017 19.7912 20.2737 15.4193 20.2737 10.046C20.2737 4.67274 15.9017 0.300781 10.5284 0.300781ZM10.5284 17.3549C6.49756 17.3549 3.21951 14.0769 3.21951 10.046C3.21951 6.01514 6.49756 2.73709 10.5284 2.73709C14.5593 2.73709 17.8374 6.01514 17.8374 10.046C17.8374 14.0769 14.5593 17.3549 10.5284 17.3549ZM14.1829 8.82786H11.7466V6.39155C11.7466 5.71913 11.2021 5.1734 10.5284 5.1734C9.85479 5.1734 9.31028 5.71913 9.31028 6.39155V8.82786H6.87397C6.20033 8.82786 5.65582 9.37359 5.65582 10.046C5.65582 10.7184 6.20033 11.2642 6.87397 11.2642H9.31028V13.7005C9.31028 14.3729 9.85479 14.9186 10.5284 14.9186C11.2021 14.9186 11.7466 14.3729 11.7466 13.7005V11.2642H14.1829C14.8565 11.2642 15.401 10.7184 15.401 10.046C15.401 9.37359 14.8565 8.82786 14.1829 8.82786Z" fill="#FF584A"/>
</svg>
