<svg width="16" height="16" viewBox="0 0 16 16" fill="none" xmlns="http://www.w3.org/2000/svg">
<path fill-rule="evenodd" clip-rule="evenodd" d="M7.99985 10.6998C6.50855 10.6998 5.29985 9.49111 5.29985 7.9998C5.29985 6.5085 6.50855 5.2998 7.99985 5.2998C9.49115 5.2998 10.6998 6.5085 10.6998 7.9998C10.6998 9.49111 9.49115 10.6998 7.99985 10.6998ZM14.7282 9.5784C13.4736 8.89981 13.4736 7.0998 14.7282 6.4212C14.946 6.3033 15.1053 6.1008 15.1692 5.8623C15.2331 5.62291 15.1962 5.36821 15.0666 5.1576L14.1063 3.5979C13.8561 3.192 13.3323 3.0516 12.912 3.2784L12.5097 3.4971C11.3136 4.1442 9.85925 3.2775 9.85925 1.9176V1.6998C9.85925 1.203 9.45695 0.799805 8.95925 0.799805H7.04045C6.54275 0.799805 6.14045 1.203 6.14045 1.6998V1.9176C6.14045 3.2775 4.68605 4.1442 3.48995 3.4971L3.08765 3.2784C2.66735 3.0516 2.14355 3.192 1.89335 3.5979L0.933049 5.1576C0.803449 5.36821 0.766549 5.62291 0.830449 5.8623C0.894349 6.1008 1.05365 6.3033 1.27145 6.4212C2.52605 7.0998 2.52605 8.89981 1.27145 9.5784C1.05365 9.6963 0.894349 9.8988 0.830449 10.1373C0.766549 10.3767 0.803449 10.6314 0.933049 10.842L1.89335 12.4017C2.14355 12.8076 2.66735 12.948 3.08765 12.7212L3.48995 12.5025C4.68605 11.8554 6.14045 12.7221 6.14045 14.082V14.2998C6.14045 14.7966 6.54275 15.1998 7.04045 15.1998H8.95925C9.45695 15.1998 9.85925 14.7966 9.85925 14.2998V14.082C9.85925 12.7221 11.3136 11.8554 12.5097 12.5025L12.912 12.7212C13.3323 12.948 13.8561 12.8076 14.1063 12.4017L15.0666 10.842C15.1962 10.6314 15.2331 10.3767 15.1692 10.1373C15.1053 9.8988 14.946 9.6963 14.7282 9.5784Z" fill="white"/>
</svg>
