<svg width="16" height="16" viewBox="0 0 16 16" fill="none" xmlns="http://www.w3.org/2000/svg">
<path fill-rule="evenodd" clip-rule="evenodd" d="M8.00082 10.6998C6.50952 10.6998 5.30083 9.49111 5.30083 7.9998C5.30083 6.5085 6.50952 5.2998 8.00082 5.2998C9.49212 5.2998 10.7008 6.5085 10.7008 7.9998C10.7008 9.49111 9.49212 10.6998 8.00082 10.6998ZM14.7292 9.5784C13.4746 8.89981 13.4746 7.0998 14.7292 6.4212C14.947 6.3033 15.1063 6.1008 15.1702 5.8623C15.2341 5.62291 15.1972 5.36821 15.0676 5.1576L14.1073 3.5979C13.8571 3.192 13.3333 3.0516 12.913 3.2784L12.5107 3.4971C11.3146 4.1442 9.86022 3.2775 9.86022 1.9176V1.6998C9.86022 1.203 9.45792 0.799805 8.96022 0.799805H7.04142C6.54373 0.799805 6.14143 1.203 6.14143 1.6998V1.9176C6.14143 3.2775 4.68702 4.1442 3.49093 3.4971L3.08863 3.2784C2.66833 3.0516 2.14453 3.192 1.89433 3.5979L0.934025 5.1576C0.804425 5.36821 0.767525 5.62291 0.831425 5.8623C0.895325 6.1008 1.05463 6.3033 1.27243 6.4212C2.52703 7.0998 2.52703 8.89981 1.27243 9.5784C1.05463 9.6963 0.895325 9.8988 0.831425 10.1373C0.767525 10.3767 0.804425 10.6314 0.934025 10.842L1.89433 12.4017C2.14453 12.8076 2.66833 12.948 3.08863 12.7212L3.49093 12.5025C4.68702 11.8554 6.14143 12.7221 6.14143 14.082V14.2998C6.14143 14.7966 6.54373 15.1998 7.04142 15.1998H8.96022C9.45792 15.1998 9.86022 14.7966 9.86022 14.2998V14.082C9.86022 12.7221 11.3146 11.8554 12.5107 12.5025L12.913 12.7212C13.3333 12.948 13.8571 12.8076 14.1073 12.4017L15.0676 10.842C15.1972 10.6314 15.2341 10.3767 15.1702 10.1373C15.1063 9.8988 14.947 9.6963 14.7292 9.5784Z" fill="#54B5FD"/>
</svg>
