<svg width="52" height="52" viewBox="0 0 52 52" fill="none" xmlns="http://www.w3.org/2000/svg">
<circle cx="25.9711" cy="26.0004" r="25.1273" fill="#003848"/>
<path d="M20.035 16.8182H22.7694V29.7088C22.7694 30.8748 22.5385 31.872 22.0769 32.7006C21.6212 33.5292 20.979 34.1625 20.1504 34.6005C19.3218 35.0326 18.3511 35.2486 17.2385 35.2486C16.2145 35.2486 15.2942 35.0621 14.4775 34.6893C13.6666 34.3164 13.0244 33.7749 12.551 33.0646C12.0834 32.3485 11.8496 31.4785 11.8496 30.4545H14.5751C14.5751 30.9576 14.6905 31.3926 14.9213 31.7596C15.1581 32.1265 15.4806 32.4136 15.889 32.6207C16.3033 32.822 16.7768 32.9226 17.3095 32.9226C17.8895 32.9226 18.3807 32.8013 18.7832 32.5586C19.1916 32.31 19.5023 31.946 19.7154 31.4666C19.9284 30.9872 20.035 30.4013 20.035 29.7088V16.8182ZM36.6787 21.5945C36.584 20.754 36.1934 20.103 35.5068 19.6413C34.8203 19.1738 33.9562 18.94 32.9145 18.94C32.1688 18.94 31.5236 19.0584 30.9791 19.2951C30.4346 19.5259 30.0115 19.8455 29.7096 20.2539C29.4137 20.6564 29.2657 21.1151 29.2657 21.63C29.2657 22.062 29.3663 22.4349 29.5676 22.7486C29.7747 23.0623 30.044 23.3256 30.3754 23.5387C30.7128 23.7459 31.0738 23.9205 31.4585 24.0625C31.8432 24.1986 32.2132 24.3111 32.5683 24.3999L34.3438 24.8615C34.9239 25.0036 35.5187 25.1959 36.1283 25.4386C36.7379 25.6812 37.3031 26.0008 37.824 26.3974C38.3448 26.7939 38.765 27.2852 39.0846 27.8711C39.4101 28.457 39.5729 29.1584 39.5729 29.9751C39.5729 31.005 39.3066 31.9194 38.7739 32.7184C38.2471 33.5174 37.4807 34.1477 36.4745 34.6094C35.4743 35.071 34.2639 35.3018 32.8435 35.3018C31.4822 35.3018 30.3044 35.0858 29.3101 34.6538C28.3158 34.2217 27.5375 33.6091 26.9752 32.8161C26.413 32.017 26.1022 31.0701 26.0431 29.9751H28.7952C28.8485 30.6321 29.0615 31.1796 29.4344 31.6175C29.8132 32.0496 30.2955 32.3722 30.8815 32.5852C31.4733 32.7924 32.1214 32.896 32.8257 32.896C33.6011 32.896 34.2906 32.7746 34.8943 32.532C35.5039 32.2834 35.9833 31.9401 36.3325 31.5021C36.6817 31.0582 36.8563 30.5404 36.8563 29.9485C36.8563 29.4099 36.7024 28.969 36.3946 28.6257C36.0928 28.2824 35.6814 27.9983 35.1606 27.7734C34.6457 27.5485 34.0627 27.3503 33.4117 27.1786L31.2632 26.5927C29.8073 26.1961 28.6531 25.6132 27.8009 24.8438C26.9545 24.0743 26.5313 23.0563 26.5313 21.7898C26.5313 20.7422 26.8154 19.8278 27.3836 19.0465C27.9518 18.2653 28.7212 17.6586 29.6919 17.2266C30.6625 16.7886 31.7574 16.5696 32.9767 16.5696C34.2077 16.5696 35.2938 16.7856 36.2348 17.2177C37.1818 17.6497 37.9275 18.2446 38.472 19.0021C39.0165 19.7538 39.3006 20.6179 39.3243 21.5945H36.6787Z" fill="white"/>
</svg>
