<svg width="51" height="35" viewBox="0 0 51 35" fill="none" xmlns="http://www.w3.org/2000/svg">
<path d="M15.0247 1.27273H19.9466V24.4759C19.9466 26.5746 19.5311 28.3697 18.7001 29.8612C17.8798 31.3526 16.7239 32.4925 15.2324 33.2809C13.7409 34.0586 11.9938 34.4474 9.99095 34.4474C8.14791 34.4474 6.4913 34.1119 5.02113 33.4407C3.56161 32.7695 2.40572 31.7947 1.55344 30.5163C0.711825 29.2273 0.291016 27.6612 0.291016 25.8182H5.19691C5.19691 26.7237 5.40465 27.5067 5.82014 28.1673C6.24627 28.8278 6.82688 29.3445 7.56197 29.7173C8.30771 30.0795 9.15998 30.2607 10.1188 30.2607C11.1628 30.2607 12.0471 30.0423 12.7715 29.6055C13.5066 29.158 14.0659 28.5028 14.4494 27.6399C14.8329 26.777 15.0247 25.7223 15.0247 24.4759V1.27273ZM44.9834 9.87003C44.8129 8.35724 44.1098 7.18537 42.874 6.3544C41.6382 5.51278 40.0828 5.09197 38.2078 5.09197C36.8655 5.09197 35.7043 5.30504 34.7242 5.73118C33.7441 6.14666 32.9823 6.72195 32.439 7.45703C31.9063 8.18146 31.64 9.0071 31.64 9.93395C31.64 10.7116 31.8211 11.3828 32.1833 11.9474C32.5562 12.5121 33.0409 12.9861 33.6375 13.3697C34.2448 13.7425 34.8946 14.0568 35.5871 14.3125C36.2796 14.5575 36.9454 14.7599 37.5846 14.9197L40.7806 15.7507C41.8247 16.0064 42.8953 16.3526 43.9926 16.7894C45.0899 17.2262 46.1073 17.8015 47.0448 18.5153C47.9823 19.229 48.7387 20.1133 49.314 21.168C49.8999 22.2227 50.1929 23.4851 50.1929 24.9553C50.1929 26.8089 49.7135 28.4549 48.7547 29.8931C47.8066 31.3313 46.4269 32.4659 44.6159 33.2969C42.8154 34.1278 40.6368 34.5433 38.08 34.5433C35.6297 34.5433 33.5097 34.1545 31.7199 33.3768C29.9301 32.5991 28.5292 31.4964 27.5171 30.0689C26.5051 28.6307 25.9458 26.9261 25.8392 24.9553H30.7931C30.8889 26.1378 31.2725 27.1232 31.9436 27.9116C32.6254 28.6893 33.4937 29.2699 34.5484 29.6534C35.6137 30.0263 36.7803 30.2127 38.048 30.2127C39.4436 30.2127 40.6847 29.9943 41.7714 29.5575C42.8687 29.1101 43.7316 28.4922 44.3602 27.7038C44.9887 26.9048 45.303 25.9727 45.303 24.9073C45.303 23.9379 45.026 23.1442 44.472 22.5263C43.9287 21.9084 43.1883 21.397 42.2508 20.9922C41.324 20.5874 40.2746 20.2305 39.1027 19.9215L35.2355 18.8668C32.6148 18.1531 30.5374 17.1037 29.0033 15.7188C27.4798 14.3338 26.7181 12.5014 26.7181 10.2216C26.7181 8.33594 27.2295 6.68998 28.2522 5.28373C29.2749 3.87748 30.6599 2.78551 32.407 2.00781C34.1542 1.21946 36.1251 0.825283 38.3197 0.825283C40.5356 0.825283 42.4905 1.21413 44.1844 1.99183C45.8889 2.76953 47.2313 3.8402 48.2114 5.20383C49.1915 6.55682 49.7029 8.11221 49.7455 9.87003H44.9834Z" fill="white"/>
</svg>
